<?xml version="1.0" encoding="UTF-8" standalone="no"?>
<svg width="933px" height="668px" viewBox="0 0 933 668" version="1.1" xmlns="http://www.w3.org/2000/svg" xmlns:xlink="http://www.w3.org/1999/xlink">
    <!-- Generator: Sketch 3.8.3 (29802) - http://www.bohemiancoding.com/sketch -->
    <title>Path Copy</title>
    <desc>Created with Sketch.</desc>
    <defs></defs>
    <g id="Page-1" stroke="none" stroke-width="1" fill="none" fill-rule="evenodd">
        <g id="favicon" transform="translate(-50.000000, -178.000000)" fill="#EF5350">
            <path d="M218.561139,845.065868 C217.33898,845.413819 216.119943,845.601046 214.977673,845.588626 L54.8556782,843.847516 C50.4396441,843.799498 48.9160638,840.83056 51.453474,837.215058 L512.140796,180.791405 C513.549582,178.784056 515.052216,178.068334 516.27497,178.5651 C517.670468,178.04993 519.290088,178.820483 520.680508,180.940504 C520.680508,180.940504 521.790067,182.632287 522.346902,183.481313 C576.99714,266.808425 686.455105,434.362587 686.455105,434.362587 L572.763708,492.212714 L513.527504,410.681073 L366.946096,630.131259 L757.580761,431.092955 L708.035851,354.800483 C705.029058,350.170428 707.075034,346.244368 712.581407,346.032318 L976.214225,335.879821 C981.731459,335.667353 984.438947,339.607169 982.25952,344.684418 L874.462361,595.811469 C872.283851,600.886582 868.07923,601.245675 865.073539,596.617318 L815.801996,520.745793 L218.724856,845.498979 L218.561139,845.065868 Z M962.238558,838.292777 C966.656463,838.345467 968.223287,835.426885 965.73432,831.7683 L786.665393,568.551128 L665.408788,630.825865 L810.166333,830.067528 C812.761508,833.639479 818.439726,836.577749 822.864638,836.630523 L962.238558,838.292777 Z" id="Path-Copy"></path>
        </g>
    </g>
</svg>