<?xml version="1.0" standalone="no"?>
<!DOCTYPE svg PUBLIC "-//W3C//DTD SVG 20010904//EN"
 "http://www.w3.org/TR/2001/REC-SVG-20010904/DTD/svg10.dtd">
<svg version="1.0" xmlns="http://www.w3.org/2000/svg"
 width="250.000000pt" height="250.000000pt" viewBox="0 0 250.000000 250.000000"
 preserveAspectRatio="xMidYMid meet">
<metadata>
Created by potrace 1.11, written by Peter Selinger 2001-2013
</metadata>
<g transform="translate(0.000000,250.000000) scale(0.100000,-0.100000)"
fill="#000000" stroke="none">
<path d="M1202 2078 c-35 -47 -235 -325 -270 -375 -7 -10 -197 -276 -422 -592
-226 -316 -410 -581 -410 -590 1 -43 12 -46 182 -46 l163 0 55 37 c30 20 82
52 115 71 340 194 854 487 910 519 39 22 90 52 115 66 25 14 114 65 198 113
85 49 159 90 166 91 7 2 25 -12 40 -29 33 -39 64 -42 93 -10 29 32 153 329
153 366 0 64 -44 72 -307 56 -144 -8 -176 -35 -135 -114 l20 -38 -201 -112
c-111 -61 -231 -128 -267 -148 -361 -201 -493 -273 -495 -271 -4 4 349 537
356 537 3 1 27 -29 53 -65 75 -105 123 -114 237 -48 63 37 79 57 79 99 0 35
-5 43 -148 250 -180 259 -200 285 -222 285 -12 0 -35 -21 -58 -52z"/>
<path d="M1770 1164 c-103 -57 -123 -82 -110 -139 6 -27 273 -418 324 -473 48
-54 90 -65 238 -66 117 -1 140 2 155 16 13 14 15 23 7 43 -19 52 -435 625
-464 640 -44 23 -79 18 -150 -21z"/>
</g>
</svg>
